# xmcd
#
# Track frame offsets:
#	150
#	24250
#	43900
#	54372
#	72345
#	94372
#	116045
#	129215
#	150647
#	169615
#	189000
#
# Disc length: 2627 seconds
#
# Revision: 1
# Processed by: cddbd v1.5.1PL0 Copyright (c) Steve Scherf et al.
# Submitted via: audiograbber 1.83.01
#
DISCID=870a410b
DTITLE=Mississippi Mud - Mississippi Mud
DYEAR=1900
DGENRE=Blues
TTITLE0=Lost and Found
TTITLE1=Cajun Queen
TTITLE2=Angel In Plaid
TTITLE3=101 Ways
TTITLE4=Mississippi Steamboat Blues/Mississippi Steamboat Funk
TTITLE5=You Are Pavarotti To Me
TTITLE6=Peaco O' Mind
TTITLE7=Hey Hey, Whoa Whoa
TTITLE8=Saturday Cartoons
TTITLE9=Fortune And Fame
TTITLE10=Sometimes
EXTD=
EXTT0=
EXTT1=
EXTT2=
EXTT3=
EXTT4=
EXTT5=
EXTT6=
EXTT7=
EXTT8=
EXTT9=
EXTT10=
PLAYORDER=
